<svg xmlns="http://www.w3.org/2000/svg" viewBox="0 0 46 38" width="46" height="38" fill="none">
  <rect width="46" height="38" rx="6" fill="#fff"/>
  <rect x="1" y="1" width="44" height="36" rx="5" stroke="#EBEBEB" stroke-width="2"/>
  <circle cx="23" cy="19" r="8" fill="#CD2E3A"/>
  <path d="M23 11a8 8 0 0 1 0 16 4 8 0 0 0 0-16z" fill="#0047A0"/>
  <path d="M15 12.5l2.2-1.3M29 25.5l2.2-1.3M15 25.5l2.2 1.3M29 12.5l2.2 1.3" stroke="#0A0A0A" stroke-width="1.4" stroke-linecap="round"/>
  <path d="M14.2 14.2l2.6-.2M29.2 24l2.6-.2M14.2 23.8l2.6.2M29.2 14l2.6.2" stroke="#0A0A0A" stroke-width="1.4" stroke-linecap="round"/>
</svg>
