<svg width="71" height="65" viewBox="0 0 71 65" fill="none" xmlns="http://www.w3.org/2000/svg">
<ellipse cx="35.5" cy="36" rx="35.5" ry="29" fill="#B7B7B7"/>
<ellipse cx="35.5" cy="29" rx="35.5" ry="29" fill="#E5E5E5"/>
<g clip-path="url(#clip0_106_3021)">
<path fill-rule="evenodd" clip-rule="evenodd" d="M34.8731 16.0381C30.9449 16.0381 27.7604 19.024 27.7604 22.7073V24.983C27.7604 25.0386 27.7612 25.0941 27.7626 25.1493H27.7049C25.854 25.1493 24.3535 26.6498 24.3535 28.5007V37.4418C24.3535 39.2927 25.854 40.7932 27.7049 40.7932H42.0455C43.8965 40.7932 45.397 39.2927 45.397 37.4418V28.5008C45.397 26.6498 43.8965 25.1493 42.0455 25.1493H41.9837C41.9851 25.0941 41.9858 25.0386 41.9858 24.983V22.7073C41.9858 19.024 38.8014 16.0381 34.8731 16.0381ZM38.4812 25.1493C38.484 25.0942 38.4855 25.0388 38.4855 24.983V22.7073C38.4855 20.8366 36.8682 19.3202 34.8731 19.3202C32.8781 19.3202 31.2608 20.8366 31.2608 22.7073V24.983C31.2608 25.0388 31.2622 25.0942 31.2651 25.1493H38.4812Z" fill="#AFAFAF"/>
</g>
<defs>
<clipPath id="clip0_106_3021">
<rect width="42" height="34" fill="white" transform="translate(14 11.5)"/>
</clipPath>
</defs>
</svg>
